{
    "accessors": [
        {
            "bufferView": 0,
            "componentType": 5126,
            "count": 68,
            "max": [
                0.10000000149011612,
                0.09988673031330109,
                0.009999999776482582
            ],
            "min": [
                -0.10000000149011612,
                6.123233849335533e-18,
                0.0
            ],
            "name": "mesh0_coord_accessor",
            "type": "VEC3"
        },
        {
            "bufferView": 1,
            "componentType": 5126,
            "count": 68,
            "max": [
                1.0,
                0.9988673329353333,
                0.0
            ],
            "min": [
                -1.0,
                0.0,
                0.0
            ],
            "name": "mesh0_norm_accessor",
            "type": "VEC3"
        },
        {
            "bufferView": 2,
            "componentType": 5126,
            "count": 68,
            "max": [
                1.0,
                1.0
            ],
            "min": [
                0.0,
                0.0
            ],
            "name": "mesh0_texcoord_accessor",
            "type": "VEC2"
        },
        {
            "bufferView": 3,
            "componentType": 5125,
            "count": 198,
            "max": [
                67
            ],
            "min": [
                0
            ],
            "name": "mesh0_idx_accessor",
            "type": "SCALAR"
        },
        {
            "bufferView": 4,
            "componentType": 5126,
            "count": 68,
            "max": [
                0.10000000149011612,
                1.8369702788777518e-17,
                0.009999999776482582
            ],
            "min": [
                -0.10000000149011612,
                -0.09988673031330109,
                0.0
            ],
            "name": "mesh1_coord_accessor",
            "type": "VEC3"
        },
        {
            "bufferView": 5,
            "componentType": 5126,
            "count": 68,
            "max": [
                1.0,
                1.2246468525851679e-16,
                0.0
            ],
            "min": [
                -1.0,
                -0.9988673329353333,
                0.0
            ],
            "name": "mesh1_norm_accessor",
            "type": "VEC3"
        },
        {
            "bufferView": 6,
            "componentType": 5126,
            "count": 68,
            "max": [
                1.0,
                1.0
            ],
            "min": [
                0.0,
                0.0
            ],
            "name": "mesh1_texcoord_accessor",
            "type": "VEC2"
        },
        {
            "bufferView": 7,
            "componentType": 5125,
            "count": 198,
            "max": [
                67
            ],
            "min": [
                0
            ],
            "name": "mesh1_idx_accessor",
            "type": "SCALAR"
        },
        {
            "bufferView": 8,
            "componentType": 5126,
            "count": 317,
            "max": [
                0.10000000149011612,
                0.09988673031330109,
                0.009999999776482582
            ],
            "min": [
                -0.10000000149011612,
                -0.09988673031330109,
                0.009999999776482582
            ],
            "name": "mesh2_coord_accessor",
            "type": "VEC3"
        },
        {
            "bufferView": 9,
            "componentType": 5126,
            "count": 317,
            "max": [
                0.0,
                0.0,
                1.0
            ],
            "min": [
                0.0,
                0.0,
                1.0
            ],
            "name": "mesh2_norm_accessor",
            "type": "VEC3"
        },
        {
            "bufferView": 10,
            "componentType": 5126,
            "count": 317,
            "max": [
                1.0,
                1.0
            ],
            "min": [
                0.0,
                0.0
            ],
            "name": "mesh2_texcoord_accessor",
            "type": "VEC2"
        },
        {
            "bufferView": 11,
            "componentType": 5125,
            "count": 963,
            "max": [
                316
            ],
            "min": [
                0
            ],
            "name": "mesh2_idx_accessor",
            "type": "SCALAR"
        },
        {
            "bufferView": 12,
            "componentType": 5126,
            "count": 317,
            "max": [
                0.10000000149011612,
                0.09988673031330109,
                0.0
            ],
            "min": [
                -0.10000000149011612,
                -0.09988673031330109,
                0.0
            ],
            "name": "mesh3_coord_accessor",
            "type": "VEC3"
        },
        {
            "bufferView": 13,
            "componentType": 5126,
            "count": 317,
            "max": [
                -0.0,
                -0.0,
                -1.0
            ],
            "min": [
                -0.0,
                -0.0,
                -1.0
            ],
            "name": "mesh3_norm_accessor",
            "type": "VEC3"
        },
        {
            "bufferView": 14,
            "componentType": 5126,
            "count": 317,
            "max": [
                1.0,
                1.0
            ],
            "min": [
                0.0,
                0.0
            ],
            "name": "mesh3_texcoord_accessor",
            "type": "VEC2"
        },
        {
            "bufferView": 15,
            "componentType": 5125,
            "count": 963,
            "max": [
                316
            ],
            "min": [
                0
            ],
            "name": "mesh3_idx_accessor",
            "type": "SCALAR"
        },
        {
            "bufferView": 16,
            "componentType": 5126,
            "count": 4,
            "max": [
                0.004999999888241291,
                0.07858116924762726,
                0.009999999776482582
            ],
            "min": [
                0.004999999888241291,
                0.025980761274695396,
                0.0
            ],
            "name": "mesh4_coord_accessor",
            "type": "VEC3"
        },
        {
            "bufferView": 17,
            "componentType": 5126,
            "count": 4,
            "max": [
                1.0,
                6.151843462463843e-17,
                0.0
            ],
            "min": [
                1.0,
                6.151843462463843e-17,
                0.0
            ],
            "name": "mesh4_norm_accessor",
            "type": "VEC3"
        },
        {
            "bufferView": 18,
            "componentType": 5126,
            "count": 4,
            "max": [
                1.0,
                1.0
            ],
            "min": [
                0.0,
                0.0
            ],
            "name": "mesh4_texcoord_accessor",
            "type": "VEC2"
        },
        {
            "bufferView": 19,
            "componentType": 5125,
            "count": 6,
            "max": [
                3
            ],
            "min": [
                0
            ],
            "name": "mesh4_idx_accessor",
            "type": "SCALAR"
        },
        {
            "bufferView": 20,
            "componentType": 5126,
            "count": 38,
            "max": [
                0.09000000357627869,
                0.08840381354093552,
                0.009999999776482582
            ],
            "min": [
                0.016875000670552254,
                -0.029587728902697563,
                0.0
            ],
            "name": "mesh5_coord_accessor",
            "type": "VEC3"
        },
        {
            "bufferView": 21,
            "componentType": 5126,
            "count": 38,
            "max": [
                -0.1875,
                0.3287525475025177,
                -0.0
            ],
            "min": [
                -1.0,
                -0.9822645783424377,
                -0.0
            ],
            "name": "mesh5_norm_accessor",
            "type": "VEC3"
        },
        {
            "bufferView": 22,
            "componentType": 5126,
            "count": 38,
            "max": [
                1.0,
                1.0
            ],
            "min": [
                0.0,
                0.0
            ],
            "name": "mesh5_texcoord_accessor",
            "type": "VEC2"
        },
        {
            "bufferView": 23,
            "componentType": 5125,
            "count": 108,
            "max": [
                37
            ],
            "min": [
                0
            ],
            "name": "mesh5_idx_accessor",
            "type": "SCALAR"
        },
        {
            "bufferView": 24,
            "componentType": 5126,
            "count": 4,
            "max": [
                0.07055328786373138,
                -0.008660254068672657,
                0.009999999776482582
            ],
            "min": [
                0.02500000037252903,
                -0.03496045619249344,
                0.0
            ],
            "name": "mesh6_coord_accessor",
            "type": "VEC3"
        },
        {
            "bufferView": 25,
            "componentType": 5126,
            "count": 4,
            "max": [
                0.5,
                0.8660253882408142,
                0.0
            ],
            "min": [
                0.5,
                0.8660253882408142,
                0.0
            ],
            "name": "mesh6_norm_accessor",
            "type": "VEC3"
        },
        {
            "bufferView": 26,
            "componentType": 5126,
            "count": 4,
            "max": [
                1.0,
                1.0
            ],
            "min": [
                0.0,
                0.0
            ],
            "name": "mesh6_texcoord_accessor",
            "type": "VEC2"
        },
        {
            "bufferView": 27,
            "componentType": 5125,
            "count": 6,
            "max": [
                3
            ],
            "min": [
                0
            ],
            "name": "mesh6_idx_accessor",
            "type": "SCALAR"
        },
        {
            "bufferView": 28,
            "componentType": 5126,
            "count": 4,
            "max": [
                -0.02500000037252903,
                -0.008660254068672657,
                0.009999999776482582
            ],
            "min": [
                -0.07055328786373138,
                -0.03496045619249344,
                0.0
            ],
            "name": "mesh7_coord_accessor",
            "type": "VEC3"
        },
        {
            "bufferView": 29,
            "componentType": 5126,
            "count": 4,
            "max": [
                -0.5,
                0.8660253882408142,
                0.0
            ],
            "min": [
                -0.5,
                0.8660253882408142,
                0.0
            ],
            "name": "mesh7_norm_accessor",
            "type": "VEC3"
        },
        {
            "bufferView": 30,
            "componentType": 5126,
            "count": 4,
            "max": [
                1.0,
                1.0
            ],
            "min": [
                0.0,
                0.0
            ],
            "name": "mesh7_texcoord_accessor",
            "type": "VEC2"
        },
        {
            "bufferView": 31,
            "componentType": 5125,
            "count": 6,
            "max": [
                3
            ],
            "min": [
                0
            ],
            "name": "mesh7_idx_accessor",
            "type": "SCALAR"
        },
        {
            "bufferView": 32,
            "componentType": 5126,
            "count": 36,
            "max": [
                -0.016875000670552254,
                0.08840381354093552,
                0.009999999776482582
            ],
            "min": [
                -0.08995405584573746,
                -0.029587728902697563,
                0.0
            ],
            "name": "mesh8_coord_accessor",
            "type": "VEC3"
        },
        {
            "bufferView": 33,
            "componentType": 5126,
            "count": 36,
            "max": [
                0.9994895458221436,
                0.3287525475025177,
                -0.0
            ],
            "min": [
                0.1875,
                -0.9822645783424377,
                -0.0
            ],
            "name": "mesh8_norm_accessor",
            "type": "VEC3"
        },
        {
            "bufferView": 34,
            "componentType": 5126,
            "count": 36,
            "max": [
                1.0,
                1.0
            ],
            "min": [
                0.0,
                0.0
            ],
            "name": "mesh8_texcoord_accessor",
            "type": "VEC2"
        },
        {
            "bufferView": 35,
            "componentType": 5125,
            "count": 102,
            "max": [
                35
            ],
            "min": [
                0
            ],
            "name": "mesh8_idx_accessor",
            "type": "SCALAR"
        },
        {
            "bufferView": 36,
            "componentType": 5126,
            "count": 4,
            "max": [
                -0.004999999888241291,
                0.07858116924762726,
                0.009999999776482582
            ],
            "min": [
                -0.004999999888241291,
                0.025980761274695396,
                0.0
            ],
            "name": "mesh9_coord_accessor",
            "type": "VEC3"
        },
        {
            "bufferView": 37,
            "componentType": 5126,
            "count": 4,
            "max": [
                -1.0,
                -6.151843462463843e-17,
                -0.0
            ],
            "min": [
                -1.0,
                -6.151843462463843e-17,
                -0.0
            ],
            "name": "mesh9_norm_accessor",
            "type": "VEC3"
        },
        {
            "bufferView": 38,
            "componentType": 5126,
            "count": 4,
            "max": [
                1.0,
                1.0
            ],
            "min": [
                0.0,
                0.0
            ],
            "name": "mesh9_texcoord_accessor",
            "type": "VEC2"
        },
        {
            "bufferView": 39,
            "componentType": 5125,
            "count": 6,
            "max": [
                3
            ],
            "min": [
                0
            ],
            "name": "mesh9_idx_accessor",
            "type": "SCALAR"
        },
        {
            "bufferView": 40,
            "componentType": 5126,
            "count": 4,
            "max": [
                0.06555328518152237,
                -0.017320508137345314,
                0.009999999776482582
            ],
            "min": [
                0.019999999552965164,
                -0.04362070932984352,
                0.0
            ],
            "name": "mesh10_coord_accessor",
            "type": "VEC3"
        },
        {
            "bufferView": 41,
            "componentType": 5126,
            "count": 4,
            "max": [
                -0.5,
                -0.8660253882408142,
                0.0
            ],
            "min": [
                -0.5,
                -0.8660253882408142,
                0.0
            ],
            "name": "mesh10_norm_accessor",
            "type": "VEC3"
        },
        {
            "bufferView": 42,
            "componentType": 5126,
            "count": 4,
            "max": [
                1.0,
                1.0
            ],
            "min": [
                0.0,
                0.0
            ],
            "name": "mesh10_texcoord_accessor",
            "type": "VEC2"
        },
        {
            "bufferView": 43,
            "componentType": 5125,
            "count": 6,
            "max": [
                3
            ],
            "min": [
                0
            ],
            "name": "mesh10_idx_accessor",
            "type": "SCALAR"
        },
        {
            "bufferView": 44,
            "componentType": 5126,
            "count": 36,
            "max": [
                0.06812244653701782,
                -0.0588160865008831,
                0.009999999776482582
            ],
            "min": [
                -0.06812244653701782,
                -0.08988524228334427,
                0.0
            ],
            "name": "mesh11_coord_accessor",
            "type": "VEC3"
        },
        {
            "bufferView": 45,
            "componentType": 5126,
            "count": 36,
            "max": [
                0.7569161057472229,
                0.9987248778343201,
                0.0
            ],
            "min": [
                -0.7569161057472229,
                0.6535120606422424,
                0.0
            ],
            "name": "mesh11_norm_accessor",
            "type": "VEC3"
        },
        {
            "bufferView": 46,
            "componentType": 5126,
            "count": 36,
            "max": [
                1.0,
                1.0
            ],
            "min": [
                0.0,
                0.0
            ],
            "name": "mesh11_texcoord_accessor",
            "type": "VEC2"
        },
        {
            "bufferView": 47,
            "componentType": 5125,
            "count": 102,
            "max": [
                35
            ],
            "min": [
                0
            ],
            "name": "mesh11_idx_accessor",
            "type": "SCALAR"
        },
        {
            "bufferView": 48,
            "componentType": 5126,
            "count": 4,
            "max": [
                -0.019999999552965164,
                -0.017320508137345314,
                0.009999999776482582
            ],
            "min": [
                -0.06555328518152237,
                -0.04362070932984352,
                0.0
            ],
            "name": "mesh12_coord_accessor",
            "type": "VEC3"
        },
        {
            "bufferView": 49,
            "componentType": 5126,
            "count": 4,
            "max": [
                0.5,
                -0.8660253882408142,
                0.0
            ],
            "min": [
                0.5,
                -0.8660253882408142,
                0.0
            ],
            "name": "mesh12_norm_accessor",
            "type": "VEC3"
        },
        {
            "bufferView": 50,
            "componentType": 5126,
            "count": 4,
            "max": [
                1.0,
                1.0
            ],
            "min": [
                0.0,
                0.0
            ],
            "name": "mesh12_texcoord_accessor",
            "type": "VEC2"
        },
        {
            "bufferView": 51,
            "componentType": 5125,
            "count": 6,
            "max": [
                3
            ],
            "min": [
                0
            ],
            "name": "mesh12_idx_accessor",
            "type": "SCALAR"
        },
        {
            "bufferView": 52,
            "componentType": 5126,
            "count": 22,
            "max": [
                0.019999999552965164,
                0.017320508137345314,
                0.009999999776482582
            ],
            "min": [
                0.009999999776482582,
                8.52905681449243e-18,
                0.0
            ],
            "name": "mesh13_coord_accessor",
            "type": "VEC3"
        },
        {
            "bufferView": 53,
            "componentType": 5126,
            "count": 22,
            "max": [
                1.0,
                0.8660253882408142,
                0.0
            ],
            "min": [
                0.5,
                5.665538686387998e-16,
                0.0
            ],
            "name": "mesh13_norm_accessor",
            "type": "VEC3"
        },
        {
            "bufferView": 54,
            "componentType": 5126,
            "count": 22,
            "max": [
                1.0,
                1.0
            ],
            "min": [
                0.0,
                0.0
            ],
            "name": "mesh13_texcoord_accessor",
            "type": "VEC2"
        },
        {
            "bufferView": 55,
            "componentType": 5125,
            "count": 60,
            "max": [
                21
            ],
            "min": [
                0
            ],
            "name": "mesh13_idx_accessor",
            "type": "SCALAR"
        },
        {
            "bufferView": 56,
            "componentType": 5126,
            "count": 22,
            "max": [
                -0.009999999776482582,
                0.017320508137345314,
                0.009999999776482582
            ],
            "min": [
                -0.019999999552965164,
                3.946495907847236e-17,
                0.0
            ],
            "name": "mesh14_coord_accessor",
            "type": "VEC3"
        },
        {
            "bufferView": 57,
            "componentType": 5126,
            "count": 22,
            "max": [
                -0.5,
                0.8660253882408142,
                0.0
            ],
            "min": [
                -1.0,
                1.7780915628762273e-15,
                0.0
            ],
            "name": "mesh14_norm_accessor",
            "type": "VEC3"
        },
        {
            "bufferView": 58,
            "componentType": 5126,
            "count": 22,
            "max": [
                1.0,
                1.0
            ],
            "min": [
                0.0,
                0.0
            ],
            "name": "mesh14_texcoord_accessor",
            "type": "VEC2"
        },
        {
            "bufferView": 59,
            "componentType": 5125,
            "count": 60,
            "max": [
                21
            ],
            "min": [
                0
            ],
            "name": "mesh14_idx_accessor",
            "type": "SCALAR"
        },
        {
            "bufferView": 60,
            "componentType": 5126,
            "count": 22,
            "max": [
                0.009999999776482582,
                -0.017320508137345314,
                0.009999999776482582
            ],
            "min": [
                -0.009999999776482582,
                -0.019999999552965164,
                0.0
            ],
            "name": "mesh15_coord_accessor",
            "type": "VEC3"
        },
        {
            "bufferView": 61,
            "componentType": 5126,
            "count": 22,
            "max": [
                0.5,
                -0.8660253882408142,
                0.0
            ],
            "min": [
                -0.5,
                -1.0,
                0.0
            ],
            "name": "mesh15_norm_accessor",
            "type": "VEC3"
        },
        {
            "bufferView": 62,
            "componentType": 5126,
            "count": 22,
            "max": [
                1.0,
                1.0
            ],
            "min": [
                0.0,
                0.0
            ],
            "name": "mesh15_texcoord_accessor",
            "type": "VEC2"
        },
        {
            "bufferView": 63,
            "componentType": 5125,
            "count": 60,
            "max": [
                21
            ],
            "min": [
                0
            ],
            "name": "mesh15_idx_accessor",
            "type": "SCALAR"
        },
        {
            "bufferView": 64,
            "componentType": 5126,
            "count": 36,
            "max": [
                -0.004999999888241291,
                0.08857948333024979,
                0.009999999776482582
            ],
            "min": [
                -0.016875000670552254,
                0.07858116924762726,
                0.0
            ],
            "name": "mesh16_coord_accessor",
            "type": "VEC3"
        },
        {
            "bufferView": 65,
            "componentType": 5126,
            "count": 36,
            "max": [
                0.1875,
                -1.2246468525851679e-16,
                -0.0
            ],
            "min": [
                -1.0,
                -0.9998311996459961,
                -0.0
            ],
            "name": "mesh16_norm_accessor",
            "type": "VEC3"
        },
        {
            "bufferView": 66,
            "componentType": 5126,
            "count": 36,
            "max": [
                1.0,
                1.0
            ],
            "min": [
                0.0,
                0.0
            ],
            "name": "mesh16_texcoord_accessor",
            "type": "VEC2"
        },
        {
            "bufferView": 67,
            "componentType": 5125,
            "count": 102,
            "max": [
                35
            ],
            "min": [
                0
            ],
            "name": "mesh16_idx_accessor",
            "type": "SCALAR"
        },
        {
            "bufferView": 68,
            "componentType": 5126,
            "count": 22,
            "max": [
                0.02500000037252903,
                8.52905681449243e-18,
                0.009999999776482582
            ],
            "min": [
                0.019999999552965164,
                -0.008660254068672657,
                0.0
            ],
            "name": "mesh17_coord_accessor",
            "type": "VEC3"
        },
        {
            "bufferView": 69,
            "componentType": 5126,
            "count": 22,
            "max": [
                1.0,
                0.8660253882408142,
                0.0
            ],
            "min": [
                0.5,
                1.1331077372775996e-15,
                0.0
            ],
            "name": "mesh17_norm_accessor",
            "type": "VEC3"
        },
        {
            "bufferView": 70,
            "componentType": 5126,
            "count": 22,
            "max": [
                1.0,
                1.0
            ],
            "min": [
                0.0,
                0.0
            ],
            "name": "mesh17_texcoord_accessor",
            "type": "VEC2"
        },
        {
            "bufferView": 71,
            "componentType": 5125,
            "count": 60,
            "max": [
                21
            ],
            "min": [
                0
            ],
            "name": "mesh17_idx_accessor",
            "type": "SCALAR"
        },
        {
            "bufferView": 72,
            "componentType": 5126,
            "count": 38,
            "max": [
                0.07055328786373138,
                -0.04362070932984352,
                0.009999999776482582
            ],
            "min": [
                0.06555328518152237,
                -0.0588160865008831,
                0.0
            ],
            "name": "mesh18_coord_accessor",
            "type": "VEC3"
        },
        {
            "bufferView": 73,
            "componentType": 5126,
            "count": 38,
            "max": [
                -0.5,
                0.6535120606422424,
                -0.0
            ],
            "min": [
                -1.0,
                -0.8660253882408142,
                -0.0
            ],
            "name": "mesh18_norm_accessor",
            "type": "VEC3"
        },
        {
            "bufferView": 74,
            "componentType": 5126,
            "count": 38,
            "max": [
                1.0,
                1.0
            ],
            "min": [
                0.0,
                0.0
            ],
            "name": "mesh18_texcoord_accessor",
            "type": "VEC2"
        },
        {
            "bufferView": 75,
            "componentType": 5125,
            "count": 108,
            "max": [
                37
            ],
            "min": [
                0
            ],
            "name": "mesh18_idx_accessor",
            "type": "SCALAR"
        },
        {
            "bufferView": 76,
            "componentType": 5126,
            "count": 36,
            "max": [
                0.08499744534492493,
                -0.029587728902697563,
                0.009999999776482582
            ],
            "min": [
                0.07055328786373138,
                -0.036300014704465866,
                0.0
            ],
            "name": "mesh19_coord_accessor",
            "type": "VEC3"
        },
        {
            "bufferView": 77,
            "componentType": 5126,
            "count": 36,
            "max": [
                0.5,
                0.9999812245368958,
                0.0
            ],
            "min": [
                -0.9444161057472229,
                0.3287525475025177,
                0.0
            ],
            "name": "mesh19_norm_accessor",
            "type": "VEC3"
        },
        {
            "bufferView": 78,
            "componentType": 5126,
            "count": 36,
            "max": [
                1.0,
                1.0
            ],
            "min": [
                0.0,
                0.0
            ],
            "name": "mesh19_texcoord_accessor",
            "type": "VEC2"
        },
        {
            "bufferView": 79,
            "componentType": 5125,
            "count": 102,
            "max": [
                35
            ],
            "min": [
                0
            ],
            "name": "mesh19_idx_accessor",
            "type": "SCALAR"
        },
        {
            "bufferView": 80,
            "componentType": 5126,
            "count": 36,
            "max": [
                0.016875000670552254,
                0.08857948333024979,
                0.009999999776482582
            ],
            "min": [
                0.004999999888241291,
                0.07858116924762726,
                0.0
            ],
            "name": "mesh20_coord_accessor",
            "type": "VEC3"
        },
        {
            "bufferView": 81,
            "componentType": 5126,
            "count": 36,
            "max": [
                1.0,
                -0.0,
                -0.0
            ],
            "min": [
                -0.1875,
                -0.9998311996459961,
                -0.0
            ],
            "name": "mesh20_norm_accessor",
            "type": "VEC3"
        },
        {
            "bufferView": 82,
            "componentType": 5126,
            "count": 36,
            "max": [
                1.0,
                1.0
            ],
            "min": [
                0.0,
                0.0
            ],
            "name": "mesh20_texcoord_accessor",
            "type": "VEC2"
        },
        {
            "bufferView": 83,
            "componentType": 5125,
            "count": 102,
            "max": [
                35
            ],
            "min": [
                0
            ],
            "name": "mesh20_idx_accessor",
            "type": "SCALAR"
        },
        {
            "bufferView": 84,
            "componentType": 5126,
            "count": 22,
            "max": [
                0.009999999776482582,
                0.025980761274695396,
                0.009999999776482582
            ],
            "min": [
                0.004999999888241291,
                0.017320508137345314,
                0.0
            ],
            "name": "mesh21_coord_accessor",
            "type": "VEC3"
        },
        {
            "bufferView": 85,
            "componentType": 5126,
            "count": 22,
            "max": [
                1.0,
                0.8660253882408142,
                0.0
            ],
            "min": [
                0.5,
                2.4492937051703357e-16,
                0.0
            ],
            "name": "mesh21_norm_accessor",
            "type": "VEC3"
        },
        {
            "bufferView": 86,
            "componentType": 5126,
            "count": 22,
            "max": [
                1.0,
                1.0
            ],
            "min": [
                0.0,
                0.0
            ],
            "name": "mesh21_texcoord_accessor",
            "type": "VEC2"
        },
        {
            "bufferView": 87,
            "componentType": 5125,
            "count": 60,
            "max": [
                21
            ],
            "min": [
                0
            ],
            "name": "mesh21_idx_accessor",
            "type": "SCALAR"
        },
        {
            "bufferView": 88,
            "componentType": 5126,
            "count": 22,
            "max": [
                -0.004999999888241291,
                0.025980761274695396,
                0.009999999776482582
            ],
            "min": [
                -0.009999999776482582,
                0.017320508137345314,
                0.0
            ],
            "name": "mesh22_coord_accessor",
            "type": "VEC3"
        },
        {
            "bufferView": 89,
            "componentType": 5126,
            "count": 22,
            "max": [
                -0.5,
                0.8660253882408142,
                -0.0
            ],
            "min": [
                -1.0,
                -1.2246468525851679e-16,
                -0.0
            ],
            "name": "mesh22_norm_accessor",
            "type": "VEC3"
        },
        {
            "bufferView": 90,
            "componentType": 5126,
            "count": 22,
            "max": [
                1.0,
                1.0
            ],
            "min": [
                0.0,
                0.0
            ],
            "name": "mesh22_texcoord_accessor",
            "type": "VEC2"
        },
        {
            "bufferView": 91,
            "componentType": 5125,
            "count": 60,
            "max": [
                21
            ],
            "min": [
                0
            ],
            "name": "mesh22_idx_accessor",
            "type": "SCALAR"
        },
        {
            "bufferView": 92,
            "componentType": 5126,
            "count": 22,
            "max": [
                -0.019999999552965164,
                3.946495907847236e-17,
                0.009999999776482582
            ],
            "min": [
                -0.02500000037252903,
                -0.008660254068672657,
                0.0
            ],
            "name": "mesh23_coord_accessor",
            "type": "VEC3"
        },
        {
            "bufferView": 93,
            "componentType": 5126,
            "count": 22,
            "max": [
                -0.5,
                0.8660253882408142,
                -0.0
            ],
            "min": [
                -1.0,
                1.6538921806115133e-15,
                -0.0
            ],
            "name": "mesh23_norm_accessor",
            "type": "VEC3"
        },
        {
            "bufferView": 94,
            "componentType": 5126,
            "count": 22,
            "max": [
                1.0,
                1.0
            ],
            "min": [
                0.0,
                0.0
            ],
            "name": "mesh23_texcoord_accessor",
            "type": "VEC2"
        },
        {
            "bufferView": 95,
            "componentType": 5125,
            "count": 60,
            "max": [
                21
            ],
            "min": [
                0
            ],
            "name": "mesh23_idx_accessor",
            "type": "SCALAR"
        },
        {
            "bufferView": 96,
            "componentType": 5126,
            "count": 22,
            "max": [
                0.019999999552965164,
                -0.015980761498212814,
                0.009999999776482582
            ],
            "min": [
                0.009999999776482582,
                -0.017320508137345314,
                0.0
            ],
            "name": "mesh24_coord_accessor",
            "type": "VEC3"
        },
        {
            "bufferView": 97,
            "componentType": 5126,
            "count": 22,
            "max": [
                0.5,
                -0.8660253882408142,
                -0.0
            ],
            "min": [
                -0.5,
                -1.0,
                -0.0
            ],
            "name": "mesh24_norm_accessor",
            "type": "VEC3"
        },
        {
            "bufferView": 98,
            "componentType": 5126,
            "count": 22,
            "max": [
                1.0,
                1.0
            ],
            "min": [
                0.0,
                0.0
            ],
            "name": "mesh24_texcoord_accessor",
            "type": "VEC2"
        },
        {
            "bufferView": 99,
            "componentType": 5125,
            "count": 60,
            "max": [
                21
            ],
            "min": [
                0
            ],
            "name": "mesh24_idx_accessor",
            "type": "SCALAR"
        },
        {
            "bufferView": 100,
            "componentType": 5126,
            "count": 22,
            "max": [
                -0.009999999776482582,
                -0.015980761498212814,
                0.009999999776482582
            ],
            "min": [
                -0.019999999552965164,
                -0.017320508137345314,
                0.0
            ],
            "name": "mesh25_coord_accessor",
            "type": "VEC3"
        },
        {
            "bufferView": 101,
            "componentType": 5126,
            "count": 22,
            "max": [
                0.5,
                -0.8660253882408142,
                -0.0
            ],
            "min": [
                -0.5,
                -1.0,
                -0.0
            ],
            "name": "mesh25_norm_accessor",
            "type": "VEC3"
        },
        {
            "bufferView": 102,
            "componentType": 5126,
            "count": 22,
            "max": [
                1.0,
                1.0
            ],
            "min": [
                0.0,
                0.0
            ],
            "name": "mesh25_texcoord_accessor",
            "type": "VEC2"
        },
        {
            "bufferView": 103,
            "componentType": 5125,
            "count": 60,
            "max": [
                21
            ],
            "min": [
                0
            ],
            "name": "mesh25_idx_accessor",
            "type": "SCALAR"
        },
        {
            "bufferView": 104,
            "componentType": 5126,
            "count": 36,
            "max": [
                -0.06555328518152237,
                -0.04362070932984352,
                0.009999999776482582
            ],
            "min": [
                -0.0705525353550911,
                -0.0588160865008831,
                0.0
            ],
            "name": "mesh26_coord_accessor",
            "type": "VEC3"
        },
        {
            "bufferView": 105,
            "componentType": 5126,
            "count": 36,
            "max": [
                0.9999249577522278,
                0.6535120606422424,
                -0.0
            ],
            "min": [
                0.5,
                -0.8660253882408142,
                -0.0
            ],
            "name": "mesh26_norm_accessor",
            "type": "VEC3"
        },
        {
            "bufferView": 106,
            "componentType": 5126,
            "count": 36,
            "max": [
                1.0,
                1.0
            ],
            "min": [
                0.0,
                0.0
            ],
            "name": "mesh26_texcoord_accessor",
            "type": "VEC2"
        },
        {
            "bufferView": 107,
            "componentType": 5125,
            "count": 102,
            "max": [
                35
            ],
            "min": [
                0
            ],
            "name": "mesh26_idx_accessor",
            "type": "SCALAR"
        },
        {
            "bufferView": 108,
            "componentType": 5126,
            "count": 36,
            "max": [
                -0.07055328786373138,
                -0.029587728902697563,
                0.009999999776482582
            ],
            "min": [
                -0.08499744534492493,
                -0.036300014704465866,
                0.0
            ],
            "name": "mesh27_coord_accessor",
            "type": "VEC3"
        },
        {
            "bufferView": 109,
            "componentType": 5126,
            "count": 36,
            "max": [
                0.9444161057472229,
                0.9999812245368958,
                0.0
            ],
            "min": [
                -0.5,
                0.3287525475025177,
                0.0
            ],
            "name": "mesh27_norm_accessor",
            "type": "VEC3"
        },
        {
            "bufferView": 110,
            "componentType": 5126,
            "count": 36,
            "max": [
                1.0,
                1.0
            ],
            "min": [
                0.0,
                0.0
            ],
            "name": "mesh27_texcoord_accessor",
            "type": "VEC2"
        },
        {
            "bufferView": 111,
            "componentType": 5125,
            "count": 102,
            "max": [
                35
            ],
            "min": [
                0
            ],
            "name": "mesh27_idx_accessor",
            "type": "SCALAR"
        }
    ],
    "asset": {
        "generator": "ONSHAPE BY PTC INC, 1.211",
        "version": "2.0"
    },
    "bufferViews": [
        {
            "buffer": 0,
            "byteLength": 816,
            "name": "mesh0_coord_bufferView",
            "target": 34962
        },
        {
            "buffer": 0,
            "byteLength": 816,
            "byteOffset": 816,
            "name": "mesh0_norm_bufferView",
            "target": 34962
        },
        {
            "buffer": 0,
            "byteLength": 544,
            "byteOffset": 1632,
            "name": "mesh0_texcoord_bufferView",
            "target": 34962
        },
        {
            "buffer": 0,
            "byteLength": 792,
            "byteOffset": 2176,
            "name": "mesh0_idx_bufferView",
            "target": 34963
        },
        {
            "buffer": 0,
            "byteLength": 816,
            "byteOffset": 2968,
            "name": "mesh1_coord_bufferView",
            "target": 34962
        },
        {
            "buffer": 0,
            "byteLength": 816,
            "byteOffset": 3784,
            "name": "mesh1_norm_bufferView",
            "target": 34962
        },
        {
            "buffer": 0,
            "byteLength": 544,
            "byteOffset": 4600,
            "name": "mesh1_texcoord_bufferView",
            "target": 34962
        },
        {
            "buffer": 0,
            "byteLength": 792,
            "byteOffset": 5144,
            "name": "mesh1_idx_bufferView",
            "target": 34963
        },
        {
            "buffer": 0,
            "byteLength": 3804,
            "byteOffset": 5936,
            "name": "mesh2_coord_bufferView",
            "target": 34962
        },
        {
            "buffer": 0,
            "byteLength": 3804,
            "byteOffset": 9740,
            "name": "mesh2_norm_bufferView",
            "target": 34962
        },
        {
            "buffer": 0,
            "byteLength": 2536,
            "byteOffset": 13544,
            "name": "mesh2_texcoord_bufferView",
            "target": 34962
        },
        {
            "buffer": 0,
            "byteLength": 3852,
            "byteOffset": 16080,
            "name": "mesh2_idx_bufferView",
            "target": 34963
        },
        {
            "buffer": 0,
            "byteLength": 3804,
            "byteOffset": 19932,
            "name": "mesh3_coord_bufferView",
            "target": 34962
        },
        {
            "buffer": 0,
            "byteLength": 3804,
            "byteOffset": 23736,
            "name": "mesh3_norm_bufferView",
            "target": 34962
        },
        {
            "buffer": 0,
            "byteLength": 2536,
            "byteOffset": 27540,
            "name": "mesh3_texcoord_bufferView",
            "target": 34962
        },
        {
            "buffer": 0,
            "byteLength": 3852,
            "byteOffset": 30076,
            "name": "mesh3_idx_bufferView",
            "target": 34963
        },
        {
            "buffer": 0,
            "byteLength": 48,
            "byteOffset": 33928,
            "name": "mesh4_coord_bufferView",
            "target": 34962
        },
        {
            "buffer": 0,
            "byteLength": 48,
            "byteOffset": 33976,
            "name": "mesh4_norm_bufferView",
            "target": 34962
        },
        {
            "buffer": 0,
            "byteLength": 32,
            "byteOffset": 34024,
            "name": "mesh4_texcoord_bufferView",
            "target": 34962
        },
        {
            "buffer": 0,
            "byteLength": 24,
            "byteOffset": 34056,
            "name": "mesh4_idx_bufferView",
            "target": 34963
        },
        {
            "buffer": 0,
            "byteLength": 456,
            "byteOffset": 34080,
            "name": "mesh5_coord_bufferView",
            "target": 34962
        },
        {
            "buffer": 0,
            "byteLength": 456,
            "byteOffset": 34536,
            "name": "mesh5_norm_bufferView",
            "target": 34962
        },
        {
            "buffer": 0,
            "byteLength": 304,
            "byteOffset": 34992,
            "name": "mesh5_texcoord_bufferView",
            "target": 34962
        },
        {
            "buffer": 0,
            "byteLength": 432,
            "byteOffset": 35296,
            "name": "mesh5_idx_bufferView",
            "target": 34963
        },
        {
            "buffer": 0,
            "byteLength": 48,
            "byteOffset": 35728,
            "name": "mesh6_coord_bufferView",
            "target": 34962
        },
        {
            "buffer": 0,
            "byteLength": 48,
            "byteOffset": 35776,
            "name": "mesh6_norm_bufferView",
            "target": 34962
        },
        {
            "buffer": 0,
            "byteLength": 32,
            "byteOffset": 35824,
            "name": "mesh6_texcoord_bufferView",
            "target": 34962
        },
        {
            "buffer": 0,
            "byteLength": 24,
            "byteOffset": 35856,
            "name": "mesh6_idx_bufferView",
            "target": 34963
        },
        {
            "buffer": 0,
            "byteLength": 48,
            "byteOffset": 35880,
            "name": "mesh7_coord_bufferView",
            "target": 34962
        },
        {
            "buffer": 0,
            "byteLength": 48,
            "byteOffset": 35928,
            "name": "mesh7_norm_bufferView",
            "target": 34962
        },
        {
            "buffer": 0,
            "byteLength": 32,
            "byteOffset": 35976,
            "name": "mesh7_texcoord_bufferView",
            "target": 34962
        },
        {
            "buffer": 0,
            "byteLength": 24,
            "byteOffset": 36008,
            "name": "mesh7_idx_bufferView",
            "target": 34963
        },
        {
            "buffer": 0,
            "byteLength": 432,
            "byteOffset": 36032,
            "name": "mesh8_coord_bufferView",
            "target": 34962
        },
        {
            "buffer": 0,
            "byteLength": 432,
            "byteOffset": 36464,
            "name": "mesh8_norm_bufferView",
            "target": 34962
        },
        {
            "buffer": 0,
            "byteLength": 288,
            "byteOffset": 36896,
            "name": "mesh8_texcoord_bufferView",
            "target": 34962
        },
        {
            "buffer": 0,
            "byteLength": 408,
            "byteOffset": 37184,
            "name": "mesh8_idx_bufferView",
            "target": 34963
        },
        {
            "buffer": 0,
            "byteLength": 48,
            "byteOffset": 37592,
            "name": "mesh9_coord_bufferView",
            "target": 34962
        },
        {
            "buffer": 0,
            "byteLength": 48,
            "byteOffset": 37640,
            "name": "mesh9_norm_bufferView",
            "target": 34962
        },
        {
            "buffer": 0,
            "byteLength": 32,
            "byteOffset": 37688,
            "name": "mesh9_texcoord_bufferView",
            "target": 34962
        },
        {
            "buffer": 0,
            "byteLength": 24,
            "byteOffset": 37720,
            "name": "mesh9_idx_bufferView",
            "target": 34963
        },
        {
            "buffer": 0,
            "byteLength": 48,
            "byteOffset": 37744,
            "name": "mesh10_coord_bufferView",
            "target": 34962
        },
        {
            "buffer": 0,
            "byteLength": 48,
            "byteOffset": 37792,
            "name": "mesh10_norm_bufferView",
            "target": 34962
        },
        {
            "buffer": 0,
            "byteLength": 32,
            "byteOffset": 37840,
            "name": "mesh10_texcoord_bufferView",
            "target": 34962
        },
        {
            "buffer": 0,
            "byteLength": 24,
            "byteOffset": 37872,
            "name": "mesh10_idx_bufferView",
            "target": 34963
        },
        {
            "buffer": 0,
            "byteLength": 432,
            "byteOffset": 37896,
            "name": "mesh11_coord_bufferView",
            "target": 34962
        },
        {
            "buffer": 0,
            "byteLength": 432,
            "byteOffset": 38328,
            "name": "mesh11_norm_bufferView",
            "target": 34962
        },
        {
            "buffer": 0,
            "byteLength": 288,
            "byteOffset": 38760,
            "name": "mesh11_texcoord_bufferView",
            "target": 34962
        },
        {
            "buffer": 0,
            "byteLength": 408,
            "byteOffset": 39048,
            "name": "mesh11_idx_bufferView",
            "target": 34963
        },
        {
            "buffer": 0,
            "byteLength": 48,
            "byteOffset": 39456,
            "name": "mesh12_coord_bufferView",
            "target": 34962
        },
        {
            "buffer": 0,
            "byteLength": 48,
            "byteOffset": 39504,
            "name": "mesh12_norm_bufferView",
            "target": 34962
        },
        {
            "buffer": 0,
            "byteLength": 32,
            "byteOffset": 39552,
            "name": "mesh12_texcoord_bufferView",
            "target": 34962
        },
        {
            "buffer": 0,
            "byteLength": 24,
            "byteOffset": 39584,
            "name": "mesh12_idx_bufferView",
            "target": 34963
        },
        {
            "buffer": 0,
            "byteLength": 264,
            "byteOffset": 39608,
            "name": "mesh13_coord_bufferView",
            "target": 34962
        },
        {
            "buffer": 0,
            "byteLength": 264,
            "byteOffset": 39872,
            "name": "mesh13_norm_bufferView",
            "target": 34962
        },
        {
            "buffer": 0,
            "byteLength": 176,
            "byteOffset": 40136,
            "name": "mesh13_texcoord_bufferView",
            "target": 34962
        },
        {
            "buffer": 0,
            "byteLength": 240,
            "byteOffset": 40312,
            "name": "mesh13_idx_bufferView",
            "target": 34963
        },
        {
            "buffer": 0,
            "byteLength": 264,
            "byteOffset": 40552,
            "name": "mesh14_coord_bufferView",
            "target": 34962
        },
        {
            "buffer": 0,
            "byteLength": 264,
            "byteOffset": 40816,
            "name": "mesh14_norm_bufferView",
            "target": 34962
        },
        {
            "buffer": 0,
            "byteLength": 176,
            "byteOffset": 41080,
            "name": "mesh14_texcoord_bufferView",
            "target": 34962
        },
        {
            "buffer": 0,
            "byteLength": 240,
            "byteOffset": 41256,
            "name": "mesh14_idx_bufferView",
            "target": 34963
        },
        {
            "buffer": 0,
            "byteLength": 264,
            "byteOffset": 41496,
            "name": "mesh15_coord_bufferView",
            "target": 34962
        },
        {
            "buffer": 0,
            "byteLength": 264,
            "byteOffset": 41760,
            "name": "mesh15_norm_bufferView",
            "target": 34962
        },
        {
            "buffer": 0,
            "byteLength": 176,
            "byteOffset": 42024,
            "name": "mesh15_texcoord_bufferView",
            "target": 34962
        },
        {
            "buffer": 0,
            "byteLength": 240,
            "byteOffset": 42200,
            "name": "mesh15_idx_bufferView",
            "target": 34963
        },
        {
            "buffer": 0,
            "byteLength": 432,
            "byteOffset": 42440,
            "name": "mesh16_coord_bufferView",
            "target": 34962
        },
        {
            "buffer": 0,
            "byteLength": 432,
            "byteOffset": 42872,
            "name": "mesh16_norm_bufferView",
            "target": 34962
        },
        {
            "buffer": 0,
            "byteLength": 288,
            "byteOffset": 43304,
            "name": "mesh16_texcoord_bufferView",
            "target": 34962
        },
        {
            "buffer": 0,
            "byteLength": 408,
            "byteOffset": 43592,
            "name": "mesh16_idx_bufferView",
            "target": 34963
        },
        {
            "buffer": 0,
            "byteLength": 264,
            "byteOffset": 44000,
            "name": "mesh17_coord_bufferView",
            "target": 34962
        },
        {
            "buffer": 0,
            "byteLength": 264,
            "byteOffset": 44264,
            "name": "mesh17_norm_bufferView",
            "target": 34962
        },
        {
            "buffer": 0,
            "byteLength": 176,
            "byteOffset": 44528,
            "name": "mesh17_texcoord_bufferView",
            "target": 34962
        },
        {
            "buffer": 0,
            "byteLength": 240,
            "byteOffset": 44704,
            "name": "mesh17_idx_bufferView",
            "target": 34963
        },
        {
            "buffer": 0,
            "byteLength": 456,
            "byteOffset": 44944,
            "name": "mesh18_coord_bufferView",
            "target": 34962
        },
        {
            "buffer": 0,
            "byteLength": 456,
            "byteOffset": 45400,
            "name": "mesh18_norm_bufferView",
            "target": 34962
        },
        {
            "buffer": 0,
            "byteLength": 304,
            "byteOffset": 45856,
            "name": "mesh18_texcoord_bufferView",
            "target": 34962
        },
        {
            "buffer": 0,
            "byteLength": 432,
            "byteOffset": 46160,
            "name": "mesh18_idx_bufferView",
            "target": 34963
        },
        {
            "buffer": 0,
            "byteLength": 432,
            "byteOffset": 46592,
            "name": "mesh19_coord_bufferView",
            "target": 34962
        },
        {
            "buffer": 0,
            "byteLength": 432,
            "byteOffset": 47024,
            "name": "mesh19_norm_bufferView",
            "target": 34962
        },
        {
            "buffer": 0,
            "byteLength": 288,
            "byteOffset": 47456,
            "name": "mesh19_texcoord_bufferView",
            "target": 34962
        },
        {
            "buffer": 0,
            "byteLength": 408,
            "byteOffset": 47744,
            "name": "mesh19_idx_bufferView",
            "target": 34963
        },
        {
            "buffer": 0,
            "byteLength": 432,
            "byteOffset": 48152,
            "name": "mesh20_coord_bufferView",
            "target": 34962
        },
        {
            "buffer": 0,
            "byteLength": 432,
            "byteOffset": 48584,
            "name": "mesh20_norm_bufferView",
            "target": 34962
        },
        {
            "buffer": 0,
            "byteLength": 288,
            "byteOffset": 49016,
            "name": "mesh20_texcoord_bufferView",
            "target": 34962
        },
        {
            "buffer": 0,
            "byteLength": 408,
            "byteOffset": 49304,
            "name": "mesh20_idx_bufferView",
            "target": 34963
        },
        {
            "buffer": 0,
            "byteLength": 264,
            "byteOffset": 49712,
            "name": "mesh21_coord_bufferView",
            "target": 34962
        },
        {
            "buffer": 0,
            "byteLength": 264,
            "byteOffset": 49976,
            "name": "mesh21_norm_bufferView",
            "target": 34962
        },
        {
            "buffer": 0,
            "byteLength": 176,
            "byteOffset": 50240,
            "name": "mesh21_texcoord_bufferView",
            "target": 34962
        },
        {
            "buffer": 0,
            "byteLength": 240,
            "byteOffset": 50416,
            "name": "mesh21_idx_bufferView",
            "target": 34963
        },
        {
            "buffer": 0,
            "byteLength": 264,
            "byteOffset": 50656,
            "name": "mesh22_coord_bufferView",
            "target": 34962
        },
        {
            "buffer": 0,
            "byteLength": 264,
            "byteOffset": 50920,
            "name": "mesh22_norm_bufferView",
            "target": 34962
        },
        {
            "buffer": 0,
            "byteLength": 176,
            "byteOffset": 51184,
            "name": "mesh22_texcoord_bufferView",
            "target": 34962
        },
        {
            "buffer": 0,
            "byteLength": 240,
            "byteOffset": 51360,
            "name": "mesh22_idx_bufferView",
            "target": 34963
        },
        {
            "buffer": 0,
            "byteLength": 264,
            "byteOffset": 51600,
            "name": "mesh23_coord_bufferView",
            "target": 34962
        },
        {
            "buffer": 0,
            "byteLength": 264,
            "byteOffset": 51864,
            "name": "mesh23_norm_bufferView",
            "target": 34962
        },
        {
            "buffer": 0,
            "byteLength": 176,
            "byteOffset": 52128,
            "name": "mesh23_texcoord_bufferView",
            "target": 34962
        },
        {
            "buffer": 0,
            "byteLength": 240,
            "byteOffset": 52304,
            "name": "mesh23_idx_bufferView",
            "target": 34963
        },
        {
            "buffer": 0,
            "byteLength": 264,
            "byteOffset": 52544,
            "name": "mesh24_coord_bufferView",
            "target": 34962
        },
        {
            "buffer": 0,
            "byteLength": 264,
            "byteOffset": 52808,
            "name": "mesh24_norm_bufferView",
            "target": 34962
        },
        {
            "buffer": 0,
            "byteLength": 176,
            "byteOffset": 53072,
            "name": "mesh24_texcoord_bufferView",
            "target": 34962
        },
        {
            "buffer": 0,
            "byteLength": 240,
            "byteOffset": 53248,
            "name": "mesh24_idx_bufferView",
            "target": 34963
        },
        {
            "buffer": 0,
            "byteLength": 264,
            "byteOffset": 53488,
            "name": "mesh25_coord_bufferView",
            "target": 34962
        },
        {
            "buffer": 0,
            "byteLength": 264,
            "byteOffset": 53752,
            "name": "mesh25_norm_bufferView",
            "target": 34962
        },
        {
            "buffer": 0,
            "byteLength": 176,
            "byteOffset": 54016,
            "name": "mesh25_texcoord_bufferView",
            "target": 34962
        },
        {
            "buffer": 0,
            "byteLength": 240,
            "byteOffset": 54192,
            "name": "mesh25_idx_bufferView",
            "target": 34963
        },
        {
            "buffer": 0,
            "byteLength": 432,
            "byteOffset": 54432,
            "name": "mesh26_coord_bufferView",
            "target": 34962
        },
        {
            "buffer": 0,
            "byteLength": 432,
            "byteOffset": 54864,
            "name": "mesh26_norm_bufferView",
            "target": 34962
        },
        {
            "buffer": 0,
            "byteLength": 288,
            "byteOffset": 55296,
            "name": "mesh26_texcoord_bufferView",
            "target": 34962
        },
        {
            "buffer": 0,
            "byteLength": 408,
            "byteOffset": 55584,
            "name": "mesh26_idx_bufferView",
            "target": 34963
        },
        {
            "buffer": 0,
            "byteLength": 432,
            "byteOffset": 55992,
            "name": "mesh27_coord_bufferView",
            "target": 34962
        },
        {
            "buffer": 0,
            "byteLength": 432,
            "byteOffset": 56424,
            "name": "mesh27_norm_bufferView",
            "target": 34962
        },
        {
            "buffer": 0,
            "byteLength": 288,
            "byteOffset": 56856,
            "name": "mesh27_texcoord_bufferView",
            "target": 34962
        },
        {
            "buffer": 0,
            "byteLength": 408,
            "byteOffset": 57144,
            "name": "mesh27_idx_bufferView",
            "target": 34963
        }
    ],
    "buffers": [
        {
            "byteLength": 57552,
            "name": "Total_buffer",
            "uri": "data:application/octet-stream;base64,"
        }
    ],
    "extensionsUsed": [
        "PTC_onshape_metadata"
    ],
    "materials": [
        {
            "doubleSided": true,
            "name": "0.615686_0.811765_0.929412_0.000000_0.000000",
            "pbrMetallicRoughness": {
                "baseColorFactor": [
                    0.615686297416687,
                    0.8117647171020508,
                    0.929411768913269,
                    1.0
                ],
                "metallicFactor": 0.0
            }
        }
    ],
    "meshes": [
        {
            "name": "mesh0_mesh",
            "primitives": [
                {
                    "attributes": {
                        "NORMAL": 1,
                        "POSITION": 0,
                        "TEXCOORD_0": 2
                    },
                    "indices": 3,
                    "material": 0
                },
                {
                    "attributes": {
                        "NORMAL": 5,
                        "POSITION": 4,
                        "TEXCOORD_0": 6
                    },
                    "indices": 7,
                    "material": 0
                },
                {
                    "attributes": {
                        "NORMAL": 9,
                        "POSITION": 8,
                        "TEXCOORD_0": 10
                    },
                    "indices": 11,
                    "material": 0
                },
                {
                    "attributes": {
                        "NORMAL": 13,
                        "POSITION": 12,
                        "TEXCOORD_0": 14
                    },
                    "indices": 15,
                    "material": 0
                },
                {
                    "attributes": {
                        "NORMAL": 17,
                        "POSITION": 16,
                        "TEXCOORD_0": 18
                    },
                    "indices": 19,
                    "material": 0
                },
                {
                    "attributes": {
                        "NORMAL": 21,
                        "POSITION": 20,
                        "TEXCOORD_0": 22
                    },
                    "indices": 23,
                    "material": 0
                },
                {
                    "attributes": {
                        "NORMAL": 25,
                        "POSITION": 24,
                        "TEXCOORD_0": 26
                    },
                    "indices": 27,
                    "material": 0
                },
                {
                    "attributes": {
                        "NORMAL": 29,
                        "POSITION": 28,
                        "TEXCOORD_0": 30
                    },
                    "indices": 31,
                    "material": 0
                },
                {
                    "attributes": {
                        "NORMAL": 33,
                        "POSITION": 32,
                        "TEXCOORD_0": 34
                    },
                    "indices": 35,
                    "material": 0
                },
                {
                    "attributes": {
                        "NORMAL": 37,
                        "POSITION": 36,
                        "TEXCOORD_0": 38
                    },
                    "indices": 39,
                    "material": 0
                },
                {
                    "attributes": {
                        "NORMAL": 41,
                        "POSITION": 40,
                        "TEXCOORD_0": 42
                    },
                    "indices": 43,
                    "material": 0
                },
                {
                    "attributes": {
                        "NORMAL": 45,
                        "POSITION": 44,
                        "TEXCOORD_0": 46
                    },
                    "indices": 47,
                    "material": 0
                },
                {
                    "attributes": {
                        "NORMAL": 49,
                        "POSITION": 48,
                        "TEXCOORD_0": 50
                    },
                    "indices": 51,
                    "material": 0
                },
                {
                    "attributes": {
                        "NORMAL": 53,
                        "POSITION": 52,
                        "TEXCOORD_0": 54
                    },
                    "indices": 55,
                    "material": 0
                },
                {
                    "attributes": {
                        "NORMAL": 57,
                        "POSITION": 56,
                        "TEXCOORD_0": 58
                    },
                    "indices": 59,
                    "material": 0
                },
                {
                    "attributes": {
                        "NORMAL": 61,
                        "POSITION": 60,
                        "TEXCOORD_0": 62
                    },
                    "indices": 63,
                    "material": 0
                },
                {
                    "attributes": {
                        "NORMAL": 65,
                        "POSITION": 64,
                        "TEXCOORD_0": 66
                    },
                    "indices": 67,
                    "material": 0
                },
                {
                    "attributes": {
                        "NORMAL": 69,
                        "POSITION": 68,
                        "TEXCOORD_0": 70
                    },
                    "indices": 71,
                    "material": 0
                },
                {
                    "attributes": {
                        "NORMAL": 73,
                        "POSITION": 72,
                        "TEXCOORD_0": 74
                    },
                    "indices": 75,
                    "material": 0
                },
                {
                    "attributes": {
                        "NORMAL": 77,
                        "POSITION": 76,
                        "TEXCOORD_0": 78
                    },
                    "indices": 79,
                    "material": 0
                },
                {
                    "attributes": {
                        "NORMAL": 81,
                        "POSITION": 80,
                        "TEXCOORD_0": 82
                    },
                    "indices": 83,
                    "material": 0
                },
                {
                    "attributes": {
                        "NORMAL": 85,
                        "POSITION": 84,
                        "TEXCOORD_0": 86
                    },
                    "indices": 87,
                    "material": 0
                },
                {
                    "attributes": {
                        "NORMAL": 89,
                        "POSITION": 88,
                        "TEXCOORD_0": 90
                    },
                    "indices": 91,
                    "material": 0
                },
                {
                    "attributes": {
                        "NORMAL": 93,
                        "POSITION": 92,
                        "TEXCOORD_0": 94
                    },
                    "indices": 95,
                    "material": 0
                },
                {
                    "attributes": {
                        "NORMAL": 97,
                        "POSITION": 96,
                        "TEXCOORD_0": 98
                    },
                    "indices": 99,
                    "material": 0
                },
                {
                    "attributes": {
                        "NORMAL": 101,
                        "POSITION": 100,
                        "TEXCOORD_0": 102
                    },
                    "indices": 103,
                    "material": 0
                },
                {
                    "attributes": {
                        "NORMAL": 105,
                        "POSITION": 104,
                        "TEXCOORD_0": 106
                    },
                    "indices": 107,
                    "material": 0
                },
                {
                    "attributes": {
                        "NORMAL": 109,
                        "POSITION": 108,
                        "TEXCOORD_0": 110
                    },
                    "indices": 111,
                    "material": 0
                }
            ]
        }
    ],
    "nodes": [
        {
            "extensions": {
                "PTC_onshape_metadata": {
                    "entity_type": "Body",
                    "id": [
                        "JHD"
                    ]
                }
            },
            "mesh": 0,
            "name": "minimalist_reaction_wheel"
        }
    ],
    "scene": 0,
    "scenes": [
        {
            "name": "Root",
            "nodes": [
                0
            ]
        }
    ]
}